<svg width="118" height="58" viewBox="0 0 118 58" fill="none" xmlns="http://www.w3.org/2000/svg">
<path d="M22.624 27H16.504V5.292H6.658V27H0.538V0.774H22.624V27ZM53.4538 13.878C53.4538 15.774 53.1238 17.538 52.4638 19.17C51.8158 20.802 50.8978 22.224 49.7098 23.436C48.5218 24.636 47.0878 25.578 45.4078 26.262C43.7398 26.946 41.8858 27.288 39.8458 27.288C37.8058 27.288 35.9458 26.946 34.2658 26.262C32.5858 25.578 31.1458 24.636 29.9458 23.436C28.7578 22.224 27.8338 20.802 27.1738 19.17C26.5258 17.538 26.2018 15.774 26.2018 13.878C26.2018 11.982 26.5258 10.218 27.1738 8.586C27.8338 6.954 28.7578 5.538 29.9458 4.338C31.1458 3.138 32.5858 2.196 34.2658 1.512C35.9458 0.827999 37.8058 0.485999 39.8458 0.485999C41.8858 0.485999 43.7398 0.833999 45.4078 1.53C47.0878 2.214 48.5218 3.156 49.7098 4.356C50.8978 5.556 51.8158 6.972 52.4638 8.604C53.1238 10.236 53.4538 11.994 53.4538 13.878ZM47.2258 13.878C47.2258 12.582 47.0578 11.418 46.7218 10.386C46.3858 9.342 45.8998 8.46 45.2638 7.74C44.6398 7.02 43.8718 6.468 42.9598 6.084C42.0478 5.7 41.0098 5.508 39.8458 5.508C38.6698 5.508 37.6198 5.7 36.6958 6.084C35.7838 6.468 35.0098 7.02 34.3738 7.74C33.7498 8.46 33.2698 9.342 32.9338 10.386C32.5978 11.418 32.4298 12.582 32.4298 13.878C32.4298 15.186 32.5978 16.362 32.9338 17.406C33.2698 18.438 33.7498 19.314 34.3738 20.034C35.0098 20.754 35.7838 21.306 36.6958 21.69C37.6198 22.062 38.6698 22.248 39.8458 22.248C41.0098 22.248 42.0478 22.062 42.9598 21.69C43.8718 21.306 44.6398 20.754 45.2638 20.034C45.8998 19.314 46.3858 18.438 46.7218 17.406C47.0578 16.362 47.2258 15.186 47.2258 13.878ZM24.01 57H18.448C17.908 57 17.452 56.856 17.08 56.568C16.708 56.28 16.366 55.866 16.054 55.326L11.698 47.136C11.41 46.608 11.086 46.26 10.726 46.092C10.366 45.924 9.91 45.84 9.358 45.84H6.622V57H0.538V30.774H6.622V41.394H8.854C9.31 41.394 9.7 41.31 10.024 41.142C10.36 40.974 10.666 40.668 10.942 40.224L15.694 32.322C15.97 31.866 16.306 31.494 16.702 31.206C17.098 30.918 17.578 30.774 18.142 30.774H23.362L16.972 41.088C16.672 41.568 16.312 41.964 15.892 42.276C15.472 42.588 15.01 42.846 14.506 43.05C15.31 43.266 15.994 43.626 16.558 44.13C17.122 44.622 17.65 45.306 18.142 46.182L24.01 57ZM35.665 43.644C37.249 43.644 38.389 43.266 39.085 42.51C39.781 41.754 40.129 40.698 40.129 39.342C40.129 38.742 40.039 38.196 39.859 37.704C39.679 37.212 39.403 36.792 39.031 36.444C38.671 36.084 38.209 35.808 37.645 35.616C37.093 35.424 36.433 35.328 35.665 35.328H32.497V43.644H35.665ZM35.665 30.774C37.513 30.774 39.097 30.996 40.417 31.44C41.749 31.872 42.841 32.472 43.693 33.24C44.557 34.008 45.193 34.914 45.601 35.958C46.009 37.002 46.213 38.13 46.213 39.342C46.213 40.65 46.003 41.85 45.583 42.942C45.163 44.034 44.521 44.97 43.657 45.75C42.793 46.53 41.695 47.142 40.363 47.586C39.043 48.018 37.477 48.234 35.665 48.234H32.497V57H26.413V30.774H35.665ZM61.3299 46.974L58.8999 39.792C58.7199 39.336 58.5279 38.802 58.3239 38.19C58.1199 37.566 57.9159 36.894 57.7119 36.174C57.5319 36.906 57.3399 37.584 57.1359 38.208C56.9319 38.832 56.7399 39.372 56.5599 39.828L54.1479 46.974H61.3299ZM70.9959 57H66.2799C65.7519 57 65.3259 56.88 65.0019 56.64C64.6779 56.388 64.4319 56.07 64.2639 55.686L62.7159 51.114H52.7439L51.1959 55.686C51.0639 56.022 50.8239 56.328 50.4759 56.604C50.1399 56.868 49.7199 57 49.2159 57H44.4639L54.6159 30.774H60.8439L70.9959 57ZM89.8624 50.214C90.0064 50.214 90.1504 50.244 90.2944 50.304C90.4384 50.352 90.5764 50.442 90.7084 50.574L93.1204 53.112C92.0644 54.492 90.7384 55.536 89.1424 56.244C87.5584 56.94 85.6804 57.288 83.5084 57.288C81.5164 57.288 79.7284 56.952 78.1444 56.28C76.5724 55.596 75.2344 54.66 74.1304 53.472C73.0384 52.272 72.1984 50.856 71.6104 49.224C71.0224 47.58 70.7284 45.798 70.7284 43.878C70.7284 41.922 71.0464 40.128 71.6824 38.496C72.3184 36.852 73.2124 35.436 74.3644 34.248C75.5164 33.06 76.8964 32.136 78.5044 31.476C80.1124 30.816 81.8824 30.486 83.8144 30.486C84.7984 30.486 85.7224 30.576 86.5864 30.756C87.4624 30.924 88.2784 31.164 89.0344 31.476C89.7904 31.776 90.4864 32.142 91.1224 32.574C91.7584 33.006 92.3224 33.474 92.8144 33.978L90.7624 36.732C90.6304 36.9 90.4744 37.056 90.2944 37.2C90.1144 37.332 89.8624 37.398 89.5384 37.398C89.3224 37.398 89.1184 37.35 88.9264 37.254C88.7344 37.158 88.5304 37.044 88.3144 36.912C88.0984 36.768 87.8584 36.618 87.5944 36.462C87.3424 36.294 87.0364 36.144 86.6764 36.012C86.3284 35.868 85.9144 35.748 85.4344 35.652C84.9664 35.556 84.4144 35.508 83.7784 35.508C82.7704 35.508 81.8464 35.694 81.0064 36.066C80.1784 36.438 79.4584 36.984 78.8464 37.704C78.2464 38.412 77.7784 39.288 77.4424 40.332C77.1184 41.364 76.9564 42.546 76.9564 43.878C76.9564 45.222 77.1364 46.416 77.4964 47.46C77.8684 48.504 78.3664 49.386 78.9904 50.106C79.6264 50.814 80.3644 51.354 81.2044 51.726C82.0444 52.098 82.9444 52.284 83.9044 52.284C84.4564 52.284 84.9604 52.26 85.4164 52.212C85.8724 52.152 86.2984 52.062 86.6944 51.942C87.0904 51.81 87.4624 51.642 87.8104 51.438C88.1584 51.222 88.5124 50.952 88.8724 50.628C89.0164 50.508 89.1724 50.412 89.3404 50.34C89.5084 50.256 89.6824 50.214 89.8624 50.214ZM117.718 30.774L107.17 53.184C106.762 54.024 106.324 54.708 105.856 55.236C105.388 55.764 104.884 56.184 104.344 56.496C103.816 56.796 103.252 57 102.652 57.108C102.052 57.228 101.41 57.288 100.726 57.288C99.6703 57.288 98.9203 57.192 98.4763 57C98.0323 56.82 97.8103 56.55 97.8103 56.19V52.5H99.3223C99.5503 52.5 99.7903 52.482 100.042 52.446C100.306 52.41 100.57 52.332 100.834 52.212C101.098 52.08 101.356 51.894 101.608 51.654C101.872 51.402 102.112 51.066 102.328 50.646L103.156 49.026L92.6263 30.774H98.3503C98.8783 30.774 99.2923 30.9 99.5923 31.152C99.9043 31.392 100.162 31.704 100.366 32.088L104.254 39.9C104.578 40.488 104.866 41.076 105.118 41.664C105.37 42.252 105.592 42.846 105.784 43.446C105.964 42.846 106.174 42.252 106.414 41.664C106.654 41.076 106.918 40.488 107.206 39.9L110.698 32.088C110.77 31.932 110.866 31.776 110.986 31.62C111.118 31.464 111.262 31.326 111.418 31.206C111.586 31.074 111.772 30.972 111.976 30.9C112.192 30.816 112.426 30.774 112.678 30.774H117.718Z" fill="black"/>
</svg>
