<svg width="201" height="165" viewBox="0 0 201 165" fill="none" xmlns="http://www.w3.org/2000/svg">
<path d="M39.8482 142.079V153.735H37.1282V147.207C37.1282 146.903 37.1362 146.583 37.1522 146.247C37.1735 145.906 37.2108 145.543 37.2642 145.159C37.1415 145.501 37.0082 145.818 36.8642 146.111C36.7202 146.399 36.5788 146.653 36.4402 146.871L32.8962 152.927C32.8375 153.023 32.7655 153.119 32.6802 153.215C32.6002 153.311 32.5095 153.399 32.4082 153.479C32.3068 153.554 32.1975 153.615 32.0802 153.663C31.9628 153.711 31.8402 153.735 31.7122 153.735H29.6722V142.079H32.3922V148.599C32.3922 148.903 32.3842 149.226 32.3682 149.567C32.3522 149.903 32.3148 150.263 32.2562 150.647C32.3788 150.311 32.5122 149.999 32.6562 149.711C32.8002 149.418 32.9415 149.162 33.0802 148.943L36.6242 142.887C36.6828 142.791 36.7522 142.695 36.8322 142.599C36.9175 142.503 37.0108 142.418 37.1122 142.343C37.2135 142.263 37.3228 142.199 37.4402 142.151C37.5575 142.103 37.6802 142.079 37.8082 142.079H39.8482ZM41.4457 143.191C41.899 142.807 42.4563 142.506 43.1177 142.287C43.7843 142.063 44.5043 141.951 45.2777 141.951C45.9337 141.951 46.5257 142.029 47.0537 142.183C47.587 142.333 48.0403 142.543 48.4137 142.815C48.787 143.087 49.0723 143.415 49.2697 143.799C49.4723 144.178 49.5737 144.597 49.5737 145.055C49.5737 145.578 49.459 146.063 49.2297 146.511C49.0057 146.954 48.651 147.322 48.1657 147.615C48.411 147.743 48.6377 147.893 48.8457 148.063C49.0537 148.229 49.2297 148.413 49.3737 148.615C49.523 148.813 49.6377 149.029 49.7177 149.263C49.803 149.493 49.8457 149.738 49.8457 149.999C49.8457 150.538 49.7443 151.042 49.5417 151.511C49.3443 151.975 49.0537 152.381 48.6697 152.727C48.2857 153.074 47.8137 153.349 47.2537 153.551C46.6937 153.749 46.0537 153.847 45.3337 153.847C44.9337 153.847 44.531 153.81 44.1257 153.735C43.7203 153.661 43.3283 153.557 42.9497 153.423C42.5763 153.285 42.2243 153.122 41.8937 152.935C41.5683 152.749 41.2803 152.541 41.0297 152.311L41.8297 151.047C41.8937 150.957 41.9763 150.882 42.0777 150.823C42.1843 150.759 42.299 150.727 42.4217 150.727C42.587 150.727 42.7577 150.778 42.9337 150.879C43.1097 150.981 43.3097 151.093 43.5337 151.215C43.763 151.338 44.0297 151.45 44.3337 151.551C44.6377 151.653 44.9977 151.703 45.4137 151.703C45.7123 151.703 45.979 151.677 46.2137 151.623C46.4483 151.565 46.6457 151.471 46.8057 151.343C46.971 151.215 47.0963 151.05 47.1817 150.847C47.267 150.645 47.3097 150.397 47.3097 150.103C47.3097 149.874 47.259 149.671 47.1577 149.495C47.0617 149.319 46.923 149.173 46.7417 149.055C46.5657 148.933 46.3523 148.842 46.1017 148.783C45.8563 148.725 45.5843 148.698 45.2857 148.703H43.5897L43.5817 146.607H45.0617C45.7337 146.607 46.2323 146.495 46.5577 146.271C46.883 146.042 47.0457 145.711 47.0457 145.279C47.0457 144.911 46.8963 144.621 46.5977 144.407C46.299 144.189 45.851 144.079 45.2537 144.079C44.907 144.079 44.603 144.119 44.3417 144.199C44.0857 144.274 43.8563 144.359 43.6537 144.455C43.4563 144.551 43.2803 144.639 43.1257 144.719C42.9763 144.794 42.8377 144.831 42.7097 144.831C42.571 144.831 42.4563 144.799 42.3657 144.735C42.2803 144.671 42.1977 144.575 42.1177 144.447L41.4457 143.191ZM64.6043 142.079V153.735H62.2203V147.031C62.2203 146.877 62.223 146.709 62.2283 146.527C62.239 146.346 62.255 146.162 62.2763 145.975L59.1803 151.967C59.0843 152.154 58.9536 152.295 58.7883 152.391C58.6283 152.487 58.4443 152.535 58.2363 152.535H57.8683C57.6603 152.535 57.4736 152.487 57.3083 152.391C57.1483 152.295 57.0203 152.154 56.9243 151.967L53.8283 145.959C53.8443 146.151 53.8576 146.341 53.8683 146.527C53.879 146.709 53.8843 146.877 53.8843 147.031V153.735H51.5003V142.079H53.5643C53.6816 142.079 53.783 142.082 53.8683 142.087C53.959 142.093 54.039 142.109 54.1083 142.135C54.1776 142.162 54.239 142.205 54.2923 142.263C54.351 142.317 54.407 142.394 54.4603 142.495L57.4603 148.407C57.567 148.61 57.6683 148.821 57.7643 149.039C57.8656 149.258 57.9616 149.482 58.0523 149.711C58.143 149.477 58.2363 149.247 58.3323 149.023C58.4336 148.799 58.5403 148.586 58.6523 148.383L61.6443 142.495C61.6976 142.394 61.751 142.317 61.8043 142.263C61.863 142.205 61.927 142.162 61.9963 142.135C62.0656 142.109 62.143 142.093 62.2283 142.087C62.319 142.082 62.423 142.079 62.5403 142.079H64.6043ZM69.5797 144.159V146.879H73.2437V148.879H69.5797V151.655H74.3637V153.735H66.8597V142.079H74.3637V144.159H69.5797ZM86.2076 142.079V153.735H83.4876V148.807H78.7516V153.735H76.0316V142.079H78.7516V146.951H83.4876V142.079H86.2076ZM98.6451 142.079V153.735H95.9251V147.207C95.9251 146.903 95.9331 146.583 95.9491 146.247C95.9704 145.906 96.0077 145.543 96.0611 145.159C95.9384 145.501 95.8051 145.818 95.6611 146.111C95.5171 146.399 95.3757 146.653 95.2371 146.871L91.6931 152.927C91.6344 153.023 91.5624 153.119 91.4771 153.215C91.3971 153.311 91.3064 153.399 91.2051 153.479C91.1037 153.554 90.9944 153.615 90.8771 153.663C90.7597 153.711 90.6371 153.735 90.5091 153.735H88.4691V142.079H91.1891V148.599C91.1891 148.903 91.1811 149.226 91.1651 149.567C91.1491 149.903 91.1117 150.263 91.0531 150.647C91.1757 150.311 91.3091 149.999 91.4531 149.711C91.5971 149.418 91.7384 149.162 91.8771 148.943L95.4211 142.887C95.4797 142.791 95.5491 142.695 95.6291 142.599C95.7144 142.503 95.8077 142.418 95.9091 142.343C96.0104 142.263 96.1197 142.199 96.2371 142.151C96.3544 142.103 96.4771 142.079 96.6051 142.079H98.6451ZM109.283 144.223H106.003V153.735H103.299V144.223H100.019V142.079H109.283V144.223ZM114.929 151.695C115.286 151.695 115.579 151.655 115.809 151.575C116.038 151.495 116.217 151.389 116.345 151.255C116.478 151.117 116.569 150.962 116.617 150.791C116.665 150.621 116.689 150.442 116.689 150.255C116.689 150.042 116.665 149.845 116.617 149.663C116.569 149.482 116.478 149.327 116.345 149.199C116.217 149.066 116.038 148.965 115.809 148.895C115.579 148.821 115.286 148.783 114.929 148.783H113.361V151.695H114.929ZM114.929 146.743C115.734 146.743 116.417 146.831 116.977 147.007C117.542 147.183 118.001 147.421 118.353 147.719C118.705 148.013 118.961 148.357 119.121 148.751C119.281 149.141 119.361 149.551 119.361 149.983C119.361 150.543 119.259 151.055 119.057 151.519C118.859 151.978 118.571 152.373 118.193 152.703C117.814 153.029 117.35 153.282 116.801 153.463C116.251 153.645 115.627 153.735 114.929 153.735H110.657V142.079H113.361V146.743H114.929ZM131.159 150.343C131.484 150.333 131.783 150.258 132.055 150.119C132.332 149.975 132.569 149.783 132.767 149.543C132.969 149.303 133.127 149.023 133.239 148.703C133.351 148.383 133.407 148.039 133.407 147.671C133.407 147.303 133.351 146.962 133.239 146.647C133.127 146.327 132.969 146.047 132.767 145.807C132.569 145.567 132.332 145.375 132.055 145.231C131.783 145.087 131.484 145.01 131.159 144.999V150.343ZM128.599 144.999C128.268 145.01 127.964 145.087 127.687 145.231C127.415 145.375 127.18 145.567 126.983 145.807C126.785 146.047 126.631 146.327 126.519 146.647C126.407 146.962 126.351 147.303 126.351 147.671C126.351 148.039 126.407 148.383 126.519 148.703C126.631 149.023 126.785 149.303 126.983 149.543C127.18 149.783 127.415 149.975 127.687 150.119C127.964 150.258 128.268 150.333 128.599 150.343V144.999ZM131.159 142.991C131.863 143.018 132.516 143.159 133.119 143.415C133.721 143.666 134.244 144.002 134.687 144.423C135.129 144.845 135.476 145.333 135.727 145.887C135.977 146.442 136.103 147.037 136.103 147.671C136.103 148.306 135.977 148.903 135.727 149.463C135.476 150.018 135.129 150.506 134.687 150.927C134.244 151.349 133.721 151.687 133.119 151.943C132.516 152.194 131.863 152.333 131.159 152.359V153.735H128.599V152.359C127.895 152.333 127.241 152.194 126.639 151.943C126.036 151.687 125.511 151.349 125.063 150.927C124.62 150.506 124.273 150.018 124.023 149.463C123.772 148.903 123.647 148.306 123.647 147.671C123.647 147.037 123.772 146.442 124.023 145.887C124.273 145.333 124.62 144.845 125.063 144.423C125.505 144.002 126.028 143.666 126.631 143.415C127.239 143.159 127.895 143.018 128.599 142.991V141.623H131.159V142.991ZM149.034 147.903C149.034 148.746 148.887 149.53 148.594 150.255C148.306 150.981 147.898 151.613 147.37 152.151C146.842 152.685 146.205 153.103 145.458 153.407C144.717 153.711 143.893 153.863 142.986 153.863C142.079 153.863 141.253 153.711 140.506 153.407C139.759 153.103 139.119 152.685 138.586 152.151C138.058 151.613 137.647 150.981 137.354 150.255C137.066 149.53 136.922 148.746 136.922 147.903C136.922 147.061 137.066 146.277 137.354 145.551C137.647 144.826 138.058 144.197 138.586 143.663C139.119 143.13 139.759 142.711 140.506 142.407C141.253 142.103 142.079 141.951 142.986 141.951C143.893 141.951 144.717 142.106 145.458 142.415C146.205 142.719 146.842 143.138 147.37 143.671C147.898 144.205 148.306 144.834 148.594 145.559C148.887 146.285 149.034 147.066 149.034 147.903ZM146.266 147.903C146.266 147.327 146.191 146.81 146.042 146.351C145.893 145.887 145.677 145.495 145.394 145.175C145.117 144.855 144.775 144.61 144.37 144.439C143.965 144.269 143.503 144.183 142.986 144.183C142.463 144.183 141.997 144.269 141.586 144.439C141.181 144.61 140.837 144.855 140.554 145.175C140.277 145.495 140.063 145.887 139.914 146.351C139.765 146.81 139.69 147.327 139.69 147.903C139.69 148.485 139.765 149.007 139.914 149.471C140.063 149.93 140.277 150.319 140.554 150.639C140.837 150.959 141.181 151.205 141.586 151.375C141.997 151.541 142.463 151.623 142.986 151.623C143.503 151.623 143.965 151.541 144.37 151.375C144.775 151.205 145.117 150.959 145.394 150.639C145.677 150.319 145.893 149.93 146.042 149.471C146.191 149.007 146.266 148.485 146.266 147.903ZM158.72 144.223H155.44V153.735H152.736V144.223H149.456V142.079H158.72V144.223ZM171.268 147.903C171.268 148.746 171.122 149.53 170.828 150.255C170.54 150.981 170.132 151.613 169.604 152.151C169.076 152.685 168.439 153.103 167.692 153.407C166.951 153.711 166.127 153.863 165.22 153.863C164.314 153.863 163.487 153.711 162.74 153.407C161.994 153.103 161.354 152.685 160.82 152.151C160.292 151.613 159.882 150.981 159.588 150.255C159.3 149.53 159.156 148.746 159.156 147.903C159.156 147.061 159.3 146.277 159.588 145.551C159.882 144.826 160.292 144.197 160.82 143.663C161.354 143.13 161.994 142.711 162.74 142.407C163.487 142.103 164.314 141.951 165.22 141.951C166.127 141.951 166.951 142.106 167.692 142.415C168.439 142.719 169.076 143.138 169.604 143.671C170.132 144.205 170.54 144.834 170.828 145.559C171.122 146.285 171.268 147.066 171.268 147.903ZM168.5 147.903C168.5 147.327 168.426 146.81 168.276 146.351C168.127 145.887 167.911 145.495 167.628 145.175C167.351 144.855 167.01 144.61 166.604 144.439C166.199 144.269 165.738 144.183 165.22 144.183C164.698 144.183 164.231 144.269 163.82 144.439C163.415 144.61 163.071 144.855 162.788 145.175C162.511 145.495 162.298 145.887 162.148 146.351C161.999 146.81 161.924 147.327 161.924 147.903C161.924 148.485 161.999 149.007 162.148 149.471C162.298 149.93 162.511 150.319 162.788 150.639C163.071 150.959 163.415 151.205 163.82 151.375C164.231 151.541 164.698 151.623 165.22 151.623C165.738 151.623 166.199 151.541 166.604 151.375C167.01 151.205 167.351 150.959 167.628 150.639C167.911 150.319 168.127 149.93 168.276 149.471C168.426 149.007 168.5 148.485 168.5 147.903Z" fill="#777777"/>
<mask id="mask0_2005_918" style="mask-type:alpha" maskUnits="userSpaceOnUse" x="30" y="0" width="140" height="140">
<rect x="30" width="139.08" height="139.08" fill="#D9D9D9"/>
</mask>
<g mask="url(#mask0_2005_918)">
<path d="M47.385 121.696C44.1977 121.696 41.4692 120.561 39.1995 118.292C36.9298 116.022 35.7949 113.293 35.7949 110.106V40.566C35.7949 37.3787 36.9298 34.6503 39.1995 32.3805C41.4692 30.1108 44.1977 28.976 47.385 28.976H65.6393L76.3601 17.3859H111.13V28.976H81.4307L70.8548 40.566H47.385V110.106H140.105V57.9511H151.695V110.106C151.695 113.293 150.56 116.022 148.291 118.292C146.021 120.561 143.293 121.696 140.105 121.696H47.385ZM140.105 40.566V28.976H128.515V17.3859H140.105V5.7959H151.695V17.3859H163.285V28.976H151.695V40.566H140.105ZM93.7451 101.414C100.989 101.414 107.146 98.8784 112.217 93.8077C117.287 88.7371 119.823 82.5799 119.823 75.3361C119.823 68.0923 117.287 61.9351 112.217 56.8645C107.146 51.7939 100.989 49.2585 93.7451 49.2585C86.5013 49.2585 80.3441 51.7939 75.2735 56.8645C70.2028 61.9351 67.6675 68.0923 67.6675 75.3361C67.6675 82.5799 70.2028 88.7371 75.2735 93.8077C80.3441 98.8784 86.5013 101.414 93.7451 101.414ZM93.7451 89.8237C89.6886 89.8237 86.2599 88.4232 83.459 85.6223C80.658 82.8214 79.2576 79.3926 79.2576 75.3361C79.2576 71.2796 80.658 67.8509 83.459 65.05C86.2599 62.249 89.6886 60.8486 93.7451 60.8486C97.8016 60.8486 101.23 62.249 104.031 65.05C106.832 67.8509 108.233 71.2796 108.233 75.3361C108.233 79.3926 106.832 82.8214 104.031 85.6223C101.23 88.4232 97.8016 89.8237 93.7451 89.8237Z" fill="#777777"/>
</g>
</svg>
