<svg width="12" height="16" viewBox="0 0 12 16" fill="none" xmlns="http://www.w3.org/2000/svg">
<mask id="mask0_578_1999" style="mask-type:alpha" maskUnits="userSpaceOnUse" x="0" y="0" width="12" height="16">
<rect width="12" height="15.4286" fill="#D9D9D9"/>
</mask>
<g mask="url(#mask0_578_1999)">
<path d="M6.14202 9.71443C6.80869 9.71443 7.40988 9.55073 7.94559 9.22335C8.48131 8.89597 8.90392 8.46443 9.21345 7.92871C8.79678 7.58347 8.32654 7.31859 7.80273 7.13407C7.27892 6.94954 6.72535 6.85728 6.14202 6.85728C5.55869 6.85728 5.00512 6.94954 4.48131 7.13407C3.9575 7.31859 3.48726 7.58347 3.07059 7.92871C3.38012 8.46443 3.80273 8.89597 4.33845 9.22335C4.87416 9.55073 5.47535 9.71443 6.14202 9.71443ZM6.14202 6.143C6.53488 6.143 6.87119 6.00312 7.15095 5.72335C7.43071 5.44359 7.57059 5.10728 7.57059 4.71443C7.57059 4.32157 7.43071 3.98526 7.15095 3.7055C6.87119 3.42573 6.53488 3.28585 6.14202 3.28585C5.74916 3.28585 5.41285 3.42573 5.13309 3.7055C4.85333 3.98526 4.71345 4.32157 4.71345 4.71443C4.71345 5.10728 4.85333 5.44359 5.13309 5.72335C5.41285 6.00312 5.74916 6.143 6.14202 6.143ZM6.14202 12.8216C7.5944 11.4882 8.67178 10.2769 9.37416 9.18764C10.0765 8.09835 10.4277 7.13109 10.4277 6.28585C10.4277 4.98823 10.014 3.92573 9.18666 3.09835C8.35928 2.27097 7.3444 1.85728 6.14202 1.85728C4.93964 1.85728 3.92476 2.27097 3.09738 3.09835C2.27 3.92573 1.85631 4.98823 1.85631 6.28585C1.85631 7.13109 2.2075 8.09835 2.90988 9.18764C3.61226 10.2769 4.68964 11.4882 6.14202 12.8216ZM6.52957 14.2895C6.30715 14.4823 5.97689 14.4823 5.75447 14.2895C4.03125 12.7963 2.72889 11.4726 1.84738 10.1698C0.900949 8.77097 0.427734 7.47633 0.427734 6.28585C0.427734 4.50014 1.00214 3.07752 2.15095 2.018C3.29976 0.958473 4.63012 0.428711 6.14202 0.428711C7.65392 0.428711 8.98428 0.958473 10.1331 2.018C11.2819 3.07752 11.8563 4.50014 11.8563 6.28585C11.8563 7.47633 11.3831 8.77097 10.4367 10.1698C9.55515 11.4726 8.25279 12.7963 6.52957 14.2895Z" fill="#525252"/>
</g>
</svg>
