<svg width="25" height="24" viewBox="0 0 25 24" fill="none" xmlns="http://www.w3.org/2000/svg">
<mask id="mask0_578_2009" style="mask-type:alpha" maskUnits="userSpaceOnUse" x="0" y="0" width="25" height="24">
<rect x="0.0585938" width="24.4706" height="24" fill="#D9D9D9"/>
</mask>
<g mask="url(#mask0_578_2009)">
<path d="M9.49001 22L9.08217 18.8C8.86125 18.7167 8.65308 18.6167 8.45766 18.5C8.26223 18.3833 8.07106 18.2583 7.88413 18.125L4.8508 19.375L2.04688 14.625L4.67237 12.675C4.65537 12.5583 4.64687 12.4458 4.64687 12.3375V11.6625C4.64687 11.5542 4.65537 11.4417 4.67237 11.325L2.04688 9.375L4.8508 4.625L7.88413 5.875C8.07106 5.74167 8.26648 5.61667 8.4704 5.5C8.67433 5.38333 8.87825 5.28333 9.08217 5.2L9.49001 2H15.0979L15.5057 5.2C15.7266 5.28333 15.9348 5.38333 16.1302 5.5C16.3256 5.61667 16.5168 5.74167 16.7037 5.875L19.7371 4.625L22.541 9.375L19.9155 11.325C19.9325 11.4417 19.941 11.5542 19.941 11.6625V12.3375C19.941 12.4458 19.924 12.5583 19.89 12.675L22.5155 14.625L19.7116 19.375L16.7037 18.125C16.5168 18.2583 16.3214 18.3833 16.1175 18.5C15.9135 18.6167 15.7096 18.7167 15.5057 18.8L15.0979 22H9.49001ZM11.2743 20H13.2881L13.6449 17.35C14.1717 17.2167 14.6603 17.0208 15.1106 16.7625C15.5609 16.5042 15.973 16.1917 16.3469 15.825L18.8704 16.85L19.8645 15.15L17.6724 13.525C17.7573 13.2917 17.8168 13.0458 17.8508 12.7875C17.8848 12.5292 17.9018 12.2667 17.9018 12C17.9018 11.7333 17.8848 11.4708 17.8508 11.2125C17.8168 10.9542 17.7573 10.7083 17.6724 10.475L19.8645 8.85L18.8704 7.15L16.3469 8.2C15.973 7.81667 15.5609 7.49583 15.1106 7.2375C14.6603 6.97917 14.1717 6.78333 13.6449 6.65L13.3135 4H11.2998L10.943 6.65C10.4162 6.78333 9.92759 6.97917 9.47727 7.2375C9.02694 7.49583 8.61485 7.80833 8.24099 8.175L5.71746 7.15L4.72335 8.85L6.9155 10.45C6.83053 10.7 6.77106 10.95 6.73707 11.2C6.70308 11.45 6.68609 11.7167 6.68609 12C6.68609 12.2667 6.70308 12.525 6.73707 12.775C6.77106 13.025 6.83053 13.275 6.9155 13.525L4.72335 15.15L5.71746 16.85L8.24099 15.8C8.61485 16.1833 9.02694 16.5042 9.47727 16.7625C9.92759 17.0208 10.4162 17.2167 10.943 17.35L11.2743 20ZM12.3449 15.5C13.3305 15.5 14.1717 15.1583 14.8684 14.475C15.5652 13.7917 15.9135 12.9667 15.9135 12C15.9135 11.0333 15.5652 10.2083 14.8684 9.525C14.1717 8.84167 13.3305 8.5 12.3449 8.5C11.3423 8.5 10.4969 8.84167 9.80864 9.525C9.1204 10.2083 8.77629 11.0333 8.77629 12C8.77629 12.9667 9.1204 13.7917 9.80864 14.475C10.4969 15.1583 11.3423 15.5 12.3449 15.5Z" fill="white"/>
</g>
</svg>
