<svg width="30" height="26" viewBox="0 0 30 26" fill="none" xmlns="http://www.w3.org/2000/svg">
<path d="M29.626 12.9998C29.626 13.776 28.996 14.406 28.2198 14.406L5.11567 14.406L13.4767 22.9875C13.6112 23.1185 13.7182 23.2751 13.7912 23.4481C13.8643 23.6211 13.9019 23.807 13.902 23.9948C13.902 24.1826 13.8644 24.3685 13.7915 24.5416C13.7185 24.7146 13.6116 24.8713 13.4771 25.0023C13.3426 25.1334 13.1832 25.2362 13.0083 25.3046C12.8334 25.3731 12.6466 25.4058 12.4588 25.4009C12.2711 25.396 12.0863 25.3535 11.9152 25.276C11.7442 25.1984 11.5904 25.0874 11.4629 24.9495L0.778797 13.9841C0.52006 13.7218 0.374999 13.3682 0.374999 12.9998C0.374999 12.6313 0.52006 12.2777 0.778797 12.0154L11.4629 1.05C11.5904 0.912075 11.7442 0.801073 11.9152 0.723548C12.0863 0.646022 12.2711 0.603546 12.4588 0.598619C12.6466 0.593694 12.8334 0.62642 13.0083 0.694869C13.1832 0.763318 13.3426 0.866105 13.4771 0.997159C13.6116 1.12821 13.7185 1.28488 13.7915 1.45792C13.8644 1.63096 13.902 1.81687 13.902 2.00466C13.9019 2.19246 13.8643 2.37835 13.7912 2.55136C13.7182 2.72437 13.6112 2.881 13.4767 3.012L5.11567 11.5935L28.2198 11.5935C28.996 11.5935 29.626 12.2235 29.626 12.9998Z" fill="black"/>
</svg>
