<svg width="30" height="26" viewBox="0 0 30 26" fill="none" xmlns="http://www.w3.org/2000/svg">
<path d="M-0.00104659 12.8943C-0.00104663 13.655 0.628953 14.2724 1.4052 14.2724L24.5093 14.2724L16.1483 22.6823C16.0138 22.8106 15.9068 22.9641 15.8338 23.1337C15.7607 23.3032 15.7231 23.4854 15.723 23.6695C15.723 23.8535 15.7606 24.0357 15.8335 24.2053C15.9065 24.3748 16.0134 24.5284 16.1479 24.6568C16.2824 24.7852 16.4418 24.886 16.6167 24.953C16.7916 25.0201 16.9784 25.0522 17.1662 25.0474C17.3539 25.0426 17.5387 25.0009 17.7098 24.9249C17.8808 24.849 18.0346 24.7402 18.1621 24.605L28.8462 13.859C29.1049 13.6019 29.25 13.2553 29.25 12.8943C29.25 12.5332 29.1049 12.1866 28.8462 11.9296L18.1621 1.18351C18.0346 1.04835 17.8808 0.939563 17.7098 0.86359C17.5387 0.787616 17.3539 0.745986 17.1662 0.741159C16.9784 0.736333 16.7916 0.768405 16.6167 0.835485C16.4418 0.902566 16.2824 1.0033 16.1479 1.13173C16.0134 1.26016 15.9065 1.4137 15.8335 1.58328C15.7606 1.75285 15.723 1.93504 15.723 2.11908C15.7231 2.30312 15.7607 2.4853 15.8338 2.65485C15.9068 2.8244 16.0138 2.97789 16.1483 3.10627L24.5093 11.5161L1.4052 11.5161C0.628953 11.5161 -0.00104656 12.1335 -0.00104659 12.8943Z" fill="black"/>
</svg>
